<?xml version="1.0" encoding="UTF-8" standalone="no"?>
<!-- Created with Inkscape (http://www.inkscape.org/) -->

<svg
   width="141.83992mm"
   height="158.35362mm"
   viewBox="0 0 141.83992 158.35362"
   version="1.1"
   id="svg1"
   inkscape:version="1.4.3 (0d15f75, 2025-12-25)"
   sodipodi:docname="Spool_poor.svg"
   xmlns:inkscape="http://www.inkscape.org/namespaces/inkscape"
   xmlns:sodipodi="http://sodipodi.sourceforge.net/DTD/sodipodi-0.dtd"
   xmlns="http://www.w3.org/2000/svg"
   xmlns:svg="http://www.w3.org/2000/svg">
  <sodipodi:namedview
     id="namedview1"
     pagecolor="#ffffff"
     bordercolor="#000000"
     borderopacity="0.25"
     inkscape:showpageshadow="2"
     inkscape:pageopacity="0.0"
     inkscape:pagecheckerboard="0"
     inkscape:deskcolor="#d1d1d1"
     inkscape:document-units="mm"
     inkscape:zoom="0.7349537"
     inkscape:cx="157.15276"
     inkscape:cy="324.51024"
     inkscape:window-width="1920"
     inkscape:window-height="1027"
     inkscape:window-x="-8"
     inkscape:window-y="-8"
     inkscape:window-maximized="1"
     inkscape:current-layer="layer1" />
  <defs
     id="defs1" />
  <g
     inkscape:label="Слой 1"
     inkscape:groupmode="layer"
     id="layer1"
     transform="translate(-30.935,-37.479581)">
    <path
       id="path23"
       style="display:inline;fill:#fce238;fill-opacity:1;stroke:none;stroke-width:0;stroke-dasharray:none;stroke-opacity:1"
       inkscape:label="filament"
       d="m 101.85476,72.804858 a 35.594475,35.594475 0 0 0 -35.594205,35.594722 35.594475,35.594475 0 0 0 35.594205,35.59421 35.594475,35.594475 0 0 0 28.06237,-13.78933 l -0.002,0.11007 v 64.31855 h 7.38198 v -82.95152 a 35.594475,35.594475 0 0 0 0.15193,-3.28198 35.594475,35.594475 0 0 0 -35.59473,-35.594722 z m 0,8.555034 a 27.359999,27.359999 0 0 1 27.36009,27.360088 27.359999,27.359999 0 0 1 -27.36009,27.36009 27.359999,27.359999 0 0 1 -27.359566,-27.36009 27.359999,27.359999 0 0 1 27.359566,-27.360088 z" />
    <path
       id="path41"
       style="display:inline;fill:#333333;fill-opacity:0;stroke:#1f1f1f;stroke-width:2.4;stroke-opacity:1"
       d="m 130.23062,108.39954 7.06719,1e-5 v 86.23365 h -7.38219 v -64.31865 m -0.1279,-21.915 a 27.932774,27.932774 0 0 1 -27.93277,27.93277 27.932774,27.932774 0 0 1 -27.93278,-27.93277 27.932774,27.932774 0 0 1 27.93278,-27.932782 27.932774,27.932774 0 0 1 27.93277,27.932782 z m 7.6617,0 a 35.594475,35.594475 0 0 1 -35.59447,35.59447 35.594475,35.594475 0 0 1 -35.59448,-35.59447 35.594475,35.594475 0 0 1 35.59448,-35.594482 35.594475,35.594475 0 0 1 35.59447,35.594482 z"
       inkscape:label="filament_outline" />
    <path
       id="path138"
       style="display:inline;fill:#000000;stroke-width:0;stroke-dasharray:none"
       d="M 101.8547,37.479581 A 70.919998,70.919998 0 0 0 30.935,108.39928 70.919998,70.919998 0 0 0 101.8547,179.3195 70.919998,70.919998 0 0 0 172.77492,108.39928 70.919998,70.919998 0 0 0 101.8547,37.479581 Z m 7.60264,4.615739 c 0.28233,0.03205 0.57709,0.01973 0.85834,0.05529 -0.27468,-0.03473 -0.56299,-0.02132 -0.8387,-0.05271 -0.007,-7.49e-4 -0.0131,-0.0018 -0.0196,-0.0026 z m -9.7963,1.191141 c 1.83241,-0.06498 3.65691,0.03146 5.48183,0.12299 1.05811,0.05309 2.11927,0.035 3.17345,0.139527 2.78489,0.277537 5.55234,0.703539 8.27237,1.335835 3.04744,0.708407 6.03346,1.660994 8.94725,2.79983 0.48253,0.188117 0.93382,0.449752 1.4118,0.649572 2.8943,1.777077 3.92733,5.419562 2.66444,8.638749 -5.08426,8.859014 -10.16856,17.718224 -15.25281,26.577194 -0.8553,1.24232 -2.56426,1.68984 -4.00183,1.17305 -0.25865,-0.093 -0.5192,-0.18201 -0.78083,-0.26613 -0.65458,-0.21085 -1.31801,-0.39295 -1.98799,-0.54829 -6.9e-4,-1.6e-4 -10e-4,-3.6e-4 -0.002,-5.2e-4 -0.66949,-0.15516 -1.3455,-0.2816 -2.02571,-0.38137 -0.68071,-0.0998 -1.3658,-0.17162 -2.05259,-0.21601 -0.61644,-0.0398 -1.23431,-0.0492 -1.85209,-0.0444 -0.0729,5.8e-4 -0.14569,-0.006 -0.21859,-0.005 -0.63764,0.0104 -1.27392,0.0501 -1.90892,0.108 -0.0502,0.005 -0.10075,0.004 -0.1509,0.009 -0.60003,0.0583 -1.1964,0.14722 -1.79059,0.24805 -0.0865,0.0147 -0.17414,0.0211 -0.26045,0.0367 -0.54945,0.0991 -1.09255,0.22821 -1.634,0.3638 -0.12912,0.0323 -0.26056,0.0545 -0.38913,0.0889 -0.5201,0.13917 -1.03116,0.30805 -1.54099,0.48111 -0.13455,0.0457 -0.27296,0.0791 -0.40669,0.12712 -0.0448,0.0161 -0.0901,0.0312 -0.13539,0.0455 -1.28122,0.40253 -2.74799,0.0608 -3.62872,-0.90899 -5.23068,-9.06039 -10.46139,-18.12088 -15.69207,-27.181286 -1.17328,-3.406598 0.17652,-7.194448 3.54914,-8.710062 0.38968,-0.157045 0.78928,-0.269418 1.18132,-0.418579 2.18788,-0.83278 4.41645,-1.554271 6.68073,-2.149223 0.52395,-0.137539 1.04925,-0.268417 1.57665,-0.392741 2.58163,-0.610534 5.19053,-1.114346 7.82691,-1.408183 1.64063,-0.180238 3.29318,-0.257515 4.94647,-0.314193 z m 18.85156,0.430465 c 2.63861,0.677556 5.19007,1.560084 7.69204,2.541447 -2.53644,-0.997029 -5.09966,-1.872411 -7.69204,-2.541447 z m 9.16688,3.123324 c 2.40403,1.009834 4.73597,2.148633 6.98717,3.422013 -2.25033,-1.272832 -4.58413,-2.412513 -6.98717,-3.422013 z m 8.2827,4.198193 c 2.00291,1.193619 3.94403,2.47524 5.8043,3.865397 -1.85971,-1.389706 -3.80205,-2.672104 -5.8043,-3.865397 z m 6.54947,4.398181 c 1.99557,1.534172 3.8778,3.200434 5.68596,4.945954 -1.80765,-1.74494 -3.69102,-3.412235 -5.68596,-4.945954 z m -77.1157,0.289905 c 2.35742,-0.05472 4.70769,1.140704 6.16965,3.272149 3.12464,5.40578 6.24931,10.81113 9.36997,16.21917 1.91825,3.28677 3.78929,6.60776 5.71334,9.89035 0.60057,1.34997 0.12973,3.01323 -1.01699,3.98322 -0.35397,0.29941 -0.65337,0.65605 -0.9896,0.97513 -0.12145,0.11399 -0.23645,0.23391 -0.35554,0.35037 -0.76995,0.76098 -1.48795,1.56179 -2.15335,2.41639 -0.27567,0.35088 -0.54624,0.7041 -0.80306,1.06919 -0.29713,0.42605 -0.59176,0.84798 -0.86247,1.29139 -0.46696,0.75793 -0.89076,1.54053 -1.27641,2.34301 -0.15338,0.32246 -0.29078,0.64812 -0.43047,0.97668 -0.40956,0.95201 -0.78249,1.919632 -1.07228,2.914042 -0.2249,0.7862 -0.41073,1.58317 -0.55604,2.38797 -0.28543,1.5808 -1.64514,2.89179 -3.25252,2.89594 l -29.23387,0.076 c -4.19915,0.0108 -7.59515,-3.25773 -7.31635,-7.342712 0.0432,-0.31304 0.0882,-0.62545 0.13591,-0.93792 0.44097,-2.88448 1.0669,-5.74046 1.88671,-8.54109 0.0328,-0.11156 0.0498,-0.22657 0.0832,-0.33796 0.89589,-3.00154 2.0018,-5.94074 3.31711,-8.78344 0.9401,-2.01122 2.03717,-3.94001 3.17706,-5.84099 0.27965,-0.47104 0.53965,-0.95418 0.83096,-1.41748 4.12806,-6.50668 9.37963,-12.28852 15.4988,-16.980363 0.99181,-0.570866 2.06468,-0.854144 3.13624,-0.879016 z m 72.5997,0.04806 c 1.4698,-0.02534 2.95604,0.433079 4.2447,1.452108 5.69126,4.500461 10.63427,9.948171 14.54795,16.058451 4.99229,7.77508 8.24041,16.54902 9.56841,25.62117 0.63453,4.334812 -2.88815,7.904432 -7.27191,7.904432 h -29.22251 c -1.60737,0 -2.96627,-1.30786 -3.25148,-2.88871 -1.02583,-5.685982 -4.09069,-10.990822 -8.5018,-14.723132 -1.22631,-1.0376 -1.68221,-2.87024 -0.88212,-4.26434 4.85051,-8.45172 9.70104,-16.90331 14.55157,-25.35504 1.36378,-2.376316 3.76752,-3.762709 6.21719,-3.804939 z m 11.40085,5.799129 c 1.77598,1.80292 3.47984,3.67539 5.04311,5.66994 -1.5628,-1.99392 -3.26772,-3.86753 -5.04311,-5.66994 z m 5.35937,6.10609 c 1.47115,1.90838 2.81595,3.91342 4.07727,5.97741 -1.26103,-2.06338 -2.60653,-4.06956 -4.07727,-5.97741 z m -110.18191,6.47092 c -0.54786,0.91425 -1.11641,1.81498 -1.62109,2.75694 0.5047,-0.94202 1.0732,-1.84263 1.62109,-2.75694 z m 115.09633,0.8847 c 1.2563,2.17209 2.40141,4.413 3.41117,6.73086 -1.00948,-2.31709 -2.15531,-4.55945 -3.41117,-6.73086 z m -117.89151,4.29121 c -0.37933,0.78228 -0.78806,1.54767 -1.13739,2.34663 -0.006,0.0143 -0.0155,0.0271 -0.0217,0.0413 0.35505,-0.81364 0.77294,-1.59161 1.1591,-2.38797 z m 121.82202,3.73414 c 0.88047,2.1428 1.65426,4.33682 2.31149,6.58461 -0.65705,-2.24699 -1.43136,-4.44253 -2.31149,-6.58461 z m -124.35313,2.28927 c -0.32816,0.89071 -0.7117,1.75427 -1.00252,2.66237 0.29081,-0.90813 0.67436,-1.77164 1.00252,-2.66237 z m 76.97928,4.35735 c 0.43105,0.33132 0.81385,0.71059 1.21853,1.06867 a 23.580002,23.580002 0 0 0 -1.21853,-1.06867 z m 50.04242,1.09916 c 0.67609,2.48073 1.18785,5.02463 1.57614,7.61142 -0.38824,-2.586 -0.90027,-5.13141 -1.57614,-7.61142 z m -64.41467,0.91932 a 16.673576,16.673576 0 0 1 8.35401,2.24379 16.673576,16.673576 0 0 1 8.31991,14.429612 16.673576,16.673576 0 0 1 -8.2827,14.40843 16.673576,16.673576 0 0 1 -8.39122,2.26498 16.673576,16.673576 0 0 1 -8.246,-2.18178 16.673576,16.673576 0 0 1 -8.4274,-14.49163 16.673576,16.673576 0 0 1 8.3907,-14.470952 16.673576,16.673576 0 0 1 8.2827,-2.20245 z m 16.68994,0.0181 c 0.48077,0.48178 0.90502,1.00989 1.34049,1.52911 a 23.580002,23.580002 0 0 0 -1.34049,-1.52911 z m -81.3046,0.0631 c -0.23721,0.92582 -0.53368,1.82743 -0.73174,2.7683 0.19805,-0.94088 0.49454,-1.84247 0.73174,-2.7683 z m 83.33135,2.25154 c 0.62339,0.81375 1.19326,1.6657 1.7048,2.55178 0.51153,0.88605 0.96457,1.80607 1.35754,2.7528 a 23.580002,23.580002 0 0 0 -1.35754,-2.7528 23.580002,23.580002 0 0 0 -1.7048,-2.55178 z m -84.72868,4.75268 c -0.12412,0.86076 -0.31263,1.700372 -0.40359,2.571422 0.091,-0.87103 0.27948,-1.710682 0.40359,-2.571422 z m 132.22914,1.341002 c 0.32991,2.67277 0.55884,5.37652 0.56327,8.13749 -0.004,-2.76053 -0.23346,-5.46514 -0.56327,-8.13749 z m -44.12857,0.11627 c 0.24454,0.66394 0.49759,1.32436 0.68213,2.01073 a 23.580002,23.580002 0 0 0 -0.68213,-2.01073 z m 0.93276,3.25614 c 0.12519,0.59083 0.27367,1.17489 0.35346,1.77767 a 23.580002,23.580002 0 0 0 -0.35346,-1.77767 z m 4.76456,6.46162 h 30.63534 c 3.53654,0.52148 6.24099,3.3973 6.15622,6.95255 -0.0537,0.40928 -0.0882,0.81989 -0.14987,1.22834 -0.39767,2.60561 -0.9618,5.18379 -1.66914,7.72305 -0.11669,0.41839 -0.24807,0.83199 -0.37311,1.24798 -0.77573,2.58539 -1.66644,5.13816 -2.75435,7.60832 -0.87021,1.96314 -1.88798,3.85043 -2.95021,5.70767 -0.37021,0.65648 -0.75003,1.30606 -1.14257,1.9482 -0.79248,1.28373 -1.61394,2.55111 -2.49545,3.78013 -0.25867,0.36308 -0.52933,0.71635 -0.7953,1.07383 -1.06988,1.4296 -2.17825,2.83244 -3.36207,4.17339 -0.0957,0.10855 -0.19716,0.21146 -0.29352,0.31936 -2.71747,3.03792 -5.70815,5.83915 -8.94106,8.32198 -2.82009,1.63756 -6.30355,0.94088 -8.5416,-1.40922 -5.33098,-9.13586 -10.66179,-18.27177 -15.99282,-27.40763 -0.39873,-1.28282 0.0842,-2.76359 1.13998,-3.65662 1.62679,-1.37606 3.06694,-2.9678 4.29225,-4.71238 0.0303,-0.0432 0.0516,-0.092 0.0816,-0.13539 0.67366,-0.97189 1.28634,-1.986 1.81952,-3.04167 0.041,-0.0814 0.0658,-0.1699 0.10594,-0.25167 0.50091,-1.01865 0.9489,-2.06292 1.30897,-3.13883 0.16078,-0.47831 0.24628,-0.97696 0.37827,-1.46399 0.17694,-0.65915 0.39134,-1.30853 0.51263,-1.98024 0.2722,-1.50753 1.52106,-2.76978 3.0303,-2.88716 z m -84.90799,0.0636 h 29.2225 c 1.35142,0 2.52686,0.92462 3.03651,2.15852 0.91503,6.08545 4.19974,11.81432 8.98447,15.70499 1.02092,1.06389 1.35329,2.72525 0.61443,4.01267 -3.7381,6.51341 -7.47619,13.02647 -11.2143,19.5399 -1.12969,1.96797 -2.25977,3.93606 -3.38946,5.90403 -1.93923,3.2812 -5.87736,4.62391 -9.11779,3.0701 -0.68759,-0.51675 -1.42945,-0.95681 -2.09703,-1.49914 -0.76846,-0.6282 -1.51749,-1.27908 -2.25671,-1.94148 -0.61974,-0.55344 -1.23076,-1.11625 -1.83038,-1.69447 -0.87507,-0.8461 -1.7342,-1.70814 -2.56108,-2.60139 -0.45113,-0.48609 -0.88059,-0.99114 -1.31724,-1.49087 -0.90202,-1.03556 -1.80232,-2.07354 -2.63756,-3.16363 -0.0352,-0.0457 -0.0657,-0.0947 -0.10077,-0.14056 -1.06959,-1.40362 -2.08723,-2.84696 -3.03909,-4.33307 -4.9923,-7.77508 -8.24041,-16.54901 -9.56841,-25.62117 -0.63453,-4.3348 2.88815,-7.90443 7.27191,-7.90443 z m 80.11862,3.3476 c -0.002,0.007 -0.003,0.0145 -0.004,0.0217 -0.11554,0.52861 -0.22943,1.05749 -0.38034,1.57458 -4.6e-4,0.002 -0.001,0.003 -0.002,0.005 a 23.580002,23.580002 0 0 0 0.38602,-1.60094 z m -0.98392,3.3569 c -0.0656,0.17285 -0.10917,0.35443 -0.1788,0.52555 -0.0239,0.0588 -0.0407,0.12069 -0.0651,0.17932 -0.0232,0.0558 -0.0564,0.10666 -0.0801,0.16226 a 23.580002,23.580002 0 0 0 0.32401,-0.86713 z m -88.08299,1.21646 c 0.15023,1.04568 0.43493,2.04324 0.63303,3.07268 -0.19829,-1.03033 -0.48269,-2.02608 -0.63303,-3.07268 z m 86.25416,2.57194 c -0.36489,0.60647 -0.75717,1.19589 -1.17564,1.76785 -0.008,0.0113 -0.0165,0.0228 -0.0248,0.0341 a 23.580002,23.580002 0 0 0 1.20044,-1.80196 z m -2.11046,2.93264 c -0.395,0.47367 -0.78224,0.95341 -1.21492,1.39629 -0.009,0.009 -0.0185,0.0173 -0.0274,0.0264 a 23.580002,23.580002 0 0 0 1.2423,-1.42265 z m -2.39107,2.46651 c -0.29993,0.26818 -0.58967,0.54592 -0.90434,0.79944 -0.012,0.01 -0.0241,0.0193 -0.0362,0.0289 a 23.580002,23.580002 0 0 0 0.94051,-0.82838 z m -79.74655,1.18288 c 0.34285,1.17445 0.80145,2.29494 1.20612,3.44165 -0.40523,-1.14818 -0.86287,-2.26565 -1.20612,-3.44165 z m 73.84148,4.80125 c 1.18608,-0.0173 2.35818,0.53679 2.96365,1.57924 4.89414,8.42652 9.78815,16.85305 14.6823,25.27959 1.94535,3.34942 1.13867,7.50843 -1.88412,9.54722 -5.5581,2.38246 -11.43808,3.99101 -17.478,4.75062 -2.58956,0.33197 -5.20319,0.47855 -7.81761,0.48834 -0.26275,8.5e-4 -0.52495,-0.003 -0.78755,-0.005 -2.41999,-0.0205 -4.83863,-0.18164 -7.24245,-0.47077 -0.28039,-0.0343 -0.56197,-0.0582 -0.84181,-0.0961 -2.44215,-0.32578 -4.86283,-0.79679 -7.2502,-1.3932 -0.2055,-0.0521 -0.41567,-0.0844 -0.62064,-0.13849 -2.59524,-0.67517 -5.14864,-1.50017 -7.63261,-2.4877 -3.54469,-1.54007 -4.90073,-5.57847 -3.51451,-9.10022 5.08388,-8.85725 10.16789,-17.71424 15.25178,-26.57151 0.85597,-1.24005 2.56334,-1.68684 3.99976,-1.17047 5.43711,1.95459 11.5637,1.95255 17.00154,-0.001 0.37793,-0.13581 0.77511,-0.20456 1.17047,-0.21033 z m -70.63341,3.83388 c 0.52646,1.16879 1.14109,2.28549 1.73168,3.41736 -0.59166,-1.1338 -1.20438,-2.24652 -1.73168,-3.41736 z m 4.31912,8.02793 c 0.69325,1.105 1.44702,2.16487 2.20193,3.22513 -0.75644,-1.0623 -1.50739,-2.11792 -2.20193,-3.22513 z m 5.3392,7.3272 c 0.84185,1.00781 1.71908,1.98221 2.61793,2.93833 -0.90077,-0.95805 -1.7744,-1.92837 -2.61793,-2.93833 z m 6.27352,6.53604 c 0.96904,0.88437 1.95189,1.75191 2.97192,2.57865 -1.02223,-0.82842 -2.0009,-1.69236 -2.97192,-2.57865 z m 7.13032,5.65443 c 1.06978,0.73786 2.1352,1.48013 3.2489,2.15594 -1.1159,-0.67704 -2.1771,-1.4166 -3.2489,-2.15594 z m 10.36009,5.99654 c 0.11447,0.052 0.23366,0.082 0.3483,0.13332 1.12595,0.50044 2.29786,0.91033 3.4556,1.34927 -1.274,-0.48301 -2.56853,-0.92524 -3.8039,-1.48259 z m 6.427,2.50475 c 0.14982,0.0496 0.30911,0.077 0.4594,0.12558 0.005,0.002 0.0106,0.004 0.016,0.006 -0.1558,-0.0503 -0.32013,-0.0804 -0.47542,-0.13178 z m 6.75307,1.84692 c 0.23483,0.0511 0.48153,0.0677 0.71727,0.11627 0.004,7.6e-4 0.007,0.002 0.0109,0.003 -0.23942,-0.0493 -0.48964,-0.067 -0.72812,-0.11886 z m 7.0156,1.1374 c 0.25987,0.028 0.5304,0.0173 0.79116,0.0424 0.001,1.4e-4 0.003,3.8e-4 0.004,5.2e-4 -0.26216,-0.0251 -0.53403,-0.0147 -0.7953,-0.0429 z"
       inkscape:label="spool" />
  </g>
</svg>
